<?xml version="1.0" encoding="UTF-8" standalone="no"?>
<svg
   xmlns:dc="http://purl.org/dc/elements/1.1/"
   xmlns:cc="http://creativecommons.org/ns#"
   xmlns:rdf="http://www.w3.org/1999/02/22-rdf-syntax-ns#"
   xmlns:svg="http://www.w3.org/2000/svg"
   xmlns="http://www.w3.org/2000/svg"
   xmlns:sodipodi="http://sodipodi.sourceforge.net/DTD/sodipodi-0.dtd"
   xmlns:inkscape="http://www.inkscape.org/namespaces/inkscape"
   viewBox="0 0 841.9 595.3"
   version="1.1"
   id="svg10"
   sodipodi:docname="logo.svg"
   inkscape:version="0.92.3 (2405546, 2018-03-11)">
  <metadata
     id="metadata16">
    <rdf:RDF>
      <cc:Work
         rdf:about="">
        <dc:format>image/svg+xml</dc:format>
        <dc:type
           rdf:resource="http://purl.org/dc/dcmitype/StillImage" />
      </cc:Work>
    </rdf:RDF>
  </metadata>
  <defs
     id="defs14" />
  <sodipodi:namedview
     pagecolor="#ffffff"
     bordercolor="#666666"
     borderopacity="1"
     objecttolerance="10"
     gridtolerance="10"
     guidetolerance="10"
     inkscape:pageopacity="0"
     inkscape:pageshadow="2"
     inkscape:window-width="1920"
     inkscape:window-height="1017"
     id="namedview12"
     showgrid="false"
     inkscape:zoom="0.39643878"
     inkscape:cx="85.463155"
     inkscape:cy="297.64999"
     inkscape:window-x="-8"
     inkscape:window-y="-8"
     inkscape:window-maximized="1"
     inkscape:current-layer="svg10" />
  <g
     transform="matrix(16.561979,0,0,16.561979,-1332.3949,31.568806)"
     id="g4791">
    <g
       id="g4828"
       transform="matrix(0.44809231,0,0,0.44809231,82.74088,-58.788674)">
      <path
         style="color:#000000;font-style:normal;font-variant:normal;font-weight:normal;font-stretch:normal;font-size:medium;line-height:normal;font-family:sans-serif;font-variant-ligatures:normal;font-variant-position:normal;font-variant-caps:normal;font-variant-numeric:normal;font-variant-alternates:normal;font-feature-settings:normal;text-indent:0;text-align:start;text-decoration:none;text-decoration-line:none;text-decoration-style:solid;text-decoration-color:#000000;letter-spacing:normal;word-spacing:normal;text-transform:none;writing-mode:lr-tb;direction:ltr;text-orientation:mixed;dominant-baseline:auto;baseline-shift:baseline;text-anchor:start;white-space:normal;shape-padding:0;clip-rule:nonzero;display:inline;overflow:visible;visibility:visible;opacity:1;isolation:auto;mix-blend-mode:normal;color-interpolation:sRGB;color-interpolation-filters:linearRGB;solid-color:#000000;solid-opacity:1;vector-effect:none;fill:#007ab6;fill-opacity:1;fill-rule:nonzero;stroke:#007ab6;stroke-width:7.10744047;stroke-linecap:butt;stroke-linejoin:miter;stroke-miterlimit:4;stroke-dasharray:none;stroke-dashoffset:0;stroke-opacity:1;color-rendering:auto;image-rendering:auto;shape-rendering:auto;text-rendering:auto;enable-background:accumulate"
         d="m 243.03516,523.11133 c -3.53716,0.0321 -7.21519,0.68053 -10.91993,1.83984 -8.46793,2.64987 -17.38234,7.91293 -26.53515,15.25391 -3.48452,2.79474 -7.00302,5.90004 -10.5293,9.2832 -3.52409,-3.38059 -7.04085,-6.48415 -10.52344,-9.27734 -9.15281,-7.34098 -18.06916,-12.60404 -26.53711,-15.25391 -8.46794,-2.64986 -16.78889,-2.63903 -23.62304,1.30664 -6.83416,3.94572 -11.01011,11.15218 -12.94922,19.81055 -1.93911,8.65841 -1.83964,19.01036 -0.0586,30.60742 0.67757,4.4119 1.60574,9.00682 2.77148,13.74805 -4.69183,1.36157 -9.13722,2.85663 -13.29883,4.47656 -10.933866,4.25609 -19.94969,9.34696 -26.478514,15.35547 -6.528821,6.00854 -10.675782,13.22775 -10.675782,21.11914 0,7.89143 4.146961,15.10282 10.675782,21.11133 6.528824,6.00854 15.544648,11.09938 26.478514,15.35547 4.16214,1.62014 8.60829,3.11441 13.30078,4.47656 -1.16627,4.74391 -2.09557,9.34017 -2.77343,13.7539 -1.78105,11.59707 -1.88051,21.95101 0.0586,30.60938 1.93913,8.65841 6.11898,15.85706 12.95312,19.80273 6.83418,3.94572 15.15121,3.96237 23.61914,1.3125 8.46794,-2.6499 17.3843,-7.91293 26.53711,-15.2539 3.48322,-2.7937 7.00044,-5.89567 10.52539,-9.27735 3.52394,3.38118 7.04086,6.48416 10.52344,9.27735 9.15282,7.34097 18.06917,12.60404 26.53711,15.2539 8.46795,2.64991 16.79671,2.63712 23.63086,-1.30859 6.83415,-3.94567 11.0023,-11.14823 12.94141,-19.80664 1.93911,-8.65841 1.83964,-19.01235 0.0586,-30.60938 -0.67777,-4.41317 -1.60738,-9.01063 -2.77344,-13.7539 4.6925,-1.36215 9.13864,-2.85642 13.30078,-4.47656 10.93387,-4.25609 19.9497,-9.34693 26.47852,-15.35547 6.52882,-6.00851 10.67383,-13.2199 10.67383,-21.11133 0,-7.89139 -4.14501,-15.1106 -10.67383,-21.11914 -6.52882,-6.00851 -15.54465,-11.09938 -26.47852,-15.35547 -4.16108,-1.61973 -8.60569,-3.11512 -13.29687,-4.47656 1.16606,-4.74328 2.09567,-9.34074 2.77344,-13.75391 1.78105,-11.59703 1.88051,-21.95101 -0.0586,-30.60937 -1.9391,-8.65837 -6.11113,-15.85312 -12.94531,-19.79883 -3.8442,-2.21947 -8.16121,-3.19757 -12.70898,-3.15625 z m -95.95508,9.30078 c 2.4245,0.0363 5.12334,0.50529 8.12109,1.44336 6.85202,2.14424 14.96493,6.78966 23.49219,13.62891 3.21236,2.57646 6.48379,5.46102 9.78516,8.6289 -7.31502,7.73155 -14.58947,16.63105 -21.59375,26.48633 -12.03335,1.13707 -23.37423,2.98588 -33.72461,5.45312 -1.09252,-4.44352 -1.95494,-8.72053 -2.58008,-12.79101 -1.65933,-10.80442 -1.63156,-20.14815 -0.0625,-27.1543 1.56908,-7.00607 4.48331,-11.43673 8.51367,-13.76367 2.26708,-1.30888 4.93161,-1.97829 8.04883,-1.93164 z m 95.94531,0.002 c 3.11898,-0.0456 5.78566,0.62469 8.05273,1.9336 4.03039,2.32694 6.93874,6.75365 8.50782,13.75976 1.56908,7.00615 1.60271,16.35375 -0.0566,27.1582 -0.62506,4.06994 -1.48741,8.3464 -2.58008,12.78907 -10.35202,-2.46797 -21.69478,-4.31779 -33.73047,-5.45508 -7.00326,-9.85348 -14.27591,-18.75049 -21.58984,-26.48047 3.30239,-3.16841 6.5741,-6.05389 9.78711,-8.63086 8.52727,-6.83924 16.63432,-11.48861 23.48632,-13.63281 2.99775,-0.93809 5.69717,-1.40591 8.12305,-1.44141 z m -47.96875,30.34571 c 5.32762,5.65776 10.67595,12.01378 15.92578,18.95117 -5.21543,-0.27107 -10.52668,-0.42383 -15.93164,-0.42383 -5.40362,0 -10.71159,0.15289 -15.92578,0.42383 5.25144,-6.93763 10.60252,-13.29348 15.93164,-18.95117 z m -0.006,27.84961 c 7.88455,0 15.58264,0.3151 23.01367,0.90624 4.22693,6.14013 8.34839,12.64969 12.29102,19.47852 3.94373,6.83075 7.52149,13.65555 10.72656,20.38867 -3.20359,6.72948 -6.78076,13.54938 -10.72265,20.37696 -3.94245,6.82851 -8.062,13.34 -12.28907,19.48046 -7.43282,0.59076 -15.13294,0.90235 -23.01953,0.90235 -7.88523,0 -15.58273,-0.31179 -23.01367,-0.90235 -4.22818,-6.14077 -8.35006,-12.65114 -12.29297,-19.48046 -3.94221,-6.82811 -7.51751,-13.65053 -10.7207,-20.38086 3.20401,-6.73221 6.78163,-13.55534 10.72461,-20.38477 3.94263,-6.82884 8.06544,-13.33872 12.29297,-19.47852 7.42975,-0.59104 15.1259,-0.90624 23.00976,-0.90624 z M 159.99805,592.75 c -2.84146,4.37921 -5.62879,8.89934 -8.33008,13.57812 -2.702,4.68 -5.22536,9.35429 -7.59766,14.00586 -3.38112,-8.014 -6.20879,-15.82394 -8.44336,-23.26562 7.56235,-1.78583 15.73966,-3.2394 24.3711,-4.31836 z m 70.10937,0 c 8.6318,1.07888 16.81026,2.53273 24.37305,4.31836 -2.23573,7.44281 -5.06241,15.25415 -8.44531,23.26953 -2.37287,-4.65285 -4.89686,-9.32847 -7.59961,-14.00977 -2.70134,-4.67884 -5.4868,-9.19915 -8.32813,-13.57812 z m -103.52148,6.69141 c 3.03796,10.19711 7.10881,20.94192 12.14062,31.93164 -5.03252,10.99328 -9.10456,21.74285 -12.14258,31.94336 -4.39312,-1.27491 -8.52661,-2.66475 -12.36328,-4.15821 -10.18659,-3.96517 -18.265896,-8.66934 -23.548825,-13.53125 -5.282929,-4.86194 -7.662109,-9.59221 -7.662109,-14.24609 0,-4.65385 2.37918,-9.392 7.662109,-14.25391 5.282929,-4.86191 13.362235,-9.56017 23.548825,-13.52539 3.83733,-1.4937 7.97126,-2.88464 12.36524,-4.16015 z m 136.93554,0 c 4.39507,1.27565 8.5313,2.66624 12.36914,4.16015 10.1866,3.96522 18.25809,8.66348 23.54102,13.52539 5.28293,4.86191 7.66992,9.60006 7.66992,14.25391 0,4.65388 -2.38699,9.38415 -7.66992,14.24609 -5.28293,4.86191 -13.35442,9.56608 -23.54102,13.53125 -3.83836,1.49412 -7.97536,2.88479 -12.37109,4.16016 -3.03735,-10.19864 -7.1075,-20.94628 -12.13867,-31.9375 5.03186,-10.99184 9.10274,-21.74014 12.14062,-31.93945 z m -119.44531,42.97851 c 2.37193,4.64999 4.89241,9.3231 7.59375,14.00196 2.70261,4.68106 5.49138,9.20458 8.33399,13.58593 -8.63366,-1.07798 -16.81286,-2.53307 -24.37696,-4.31836 2.23531,-7.44336 5.06705,-15.25364 8.44922,-23.26953 z m 101.95703,0.006 c 3.38184,8.01317 6.2118,15.82276 8.44727,23.26367 -7.56278,1.78468 -15.74127,3.23859 -24.37305,4.31641 2.84197,-4.37991 5.63027,-8.90049 8.33203,-13.58008 2.70079,-4.6779 5.22236,-9.35048 7.59375,-14 z m 10.91602,32.27539 c 1.09331,4.44434 1.95485,8.72193 2.58008,12.79297 1.65932,10.80442 1.62181,20.14623 0.0527,27.15234 -1.56908,7.00611 -4.47355,11.43873 -8.50391,13.76563 -4.03035,2.32694 -9.32769,2.63049 -16.17968,0.48633 -6.85202,-2.1442 -14.95517,-6.7858 -23.48242,-13.625 -3.21269,-2.57672 -6.48679,-5.46245 -9.78907,-8.63086 7.31457,-7.73086 14.58788,-16.63 21.5918,-26.48438 12.03566,-1.1385 23.37847,-2.98782 33.73047,-5.45703 z m -123.78711,0.002 c 10.35207,2.4688 21.69501,4.31693 33.73047,5.45508 7.00327,9.85521 14.27599,18.75685 21.58984,26.48828 -3.30191,3.16863 -6.57638,6.05414 -9.78906,8.63086 -8.52724,6.83925 -16.63624,11.4769 -23.48828,13.6211 -6.85199,2.14416 -12.14345,1.84452 -16.17383,-0.48242 -4.03035,-2.32691 -6.94069,-6.76343 -8.50977,-13.76954 -1.56905,-7.00611 -1.60072,-16.34397 0.0586,-27.14843 0.62533,-4.07173 1.48883,-8.34957 2.58203,-12.79493 z m 45.96289,6.34766 c 5.21417,0.27127 10.52218,0.42383 15.92578,0.42383 5.40494,0 10.71623,-0.15242 15.93164,-0.42383 -5.24965,6.93699 -10.60041,13.2916 -15.92773,18.94922 -5.32825,-5.65709 -10.679,-12.01273 -15.92969,-18.94922 z"
         transform="scale(0.26458333)"
         id="path4777"
         inkscape:connector-curvature="0" />
      <g
         id="g4775"
         transform="matrix(1.1538327,0,0,-1.1538327,-87.476382,339.65996)">
        <circle
           r="16.037359"
           cy="149.58951"
           cx="120.53024"
           id="path4771"
           style="opacity:1;fill:#ffffff;fill-opacity:1;stroke:#007ab6;stroke-width:3.2595892;stroke-miterlimit:4;stroke-dasharray:none;stroke-dashoffset:0;stroke-opacity:1" />
      </g>
    </g>
    <path
       sodipodi:nodetypes="cccscccccscccsccscssccccccccccccscccccscccccccccccccccccscccccsccscscccccscsccccccccccccccccscccsccsccccccszccczccczc"
       inkscape:connector-curvature="0"
       id="path4761"
       d="m 104.27884,22.359327 c -0.22561,-0.06354 -0.53477,-0.163624 -0.68704,-0.222432 -0.46232,-0.178547 -0.98855,-0.461869 -1.01649,-0.547271 -0.0192,-0.05873 0.9973,-1.712956 1.05259,-1.712956 0.0341,0 0.28821,0.400381 0.79298,1.24941 0.40853,0.687175 0.74934,1.273132 0.75735,1.30211 0.0131,0.04736 -0.0112,0.05241 -0.23732,0.04963 -0.19419,-0.0017 -0.34585,-0.02949 -0.66207,-0.118526 z m 2.29183,0.03244 c 0,-0.03185 0.0995,-0.224631 0.22112,-0.428441 0.12162,-0.20381 0.46118,-0.774447 0.75459,-1.268093 0.29342,-0.493645 0.54907,-0.892332 0.56811,-0.885996 0.0439,0.01466 1.04534,1.666957 1.04534,1.724771 0,0.05283 -0.16083,0.155998 -0.53889,0.345719 -0.64335,0.32285 -1.13419,0.465316 -1.90726,0.553582 -0.12667,0.01449 -0.14301,0.0097 -0.14301,-0.04154 z m -0.87308,-3.006792 v 1.231859 c 0,0.972544 -0.008,1.231867 -0.0381,1.231867 -0.0209,0 -0.24685,-0.362403 -0.50205,-0.805347 l 1e-5,-3.3e-5 c -0.25521,-0.442944 -0.73685,-1.279527 -1.07032,-1.85908 -0.33348,-0.579552 -0.86826,-1.507579 -1.18841,-2.062282 -0.32016,-0.554712 -0.8898,-1.543721 -1.26588,-2.19778 -0.37607,-0.654067 -0.7263,-1.260929 -0.77826,-1.348589 -0.16371,-0.276134 -0.13901,-0.278865 0.29095,-0.0321 1.14255,0.655626 1.6587,0.968263 1.74234,1.055375 z m 3.08905,-4.793799 c 0.0748,-0.07668 0.28314,-0.221927 0.47183,-0.328917 0.18584,-0.105381 0.58178,-0.336451 0.87983,-0.513481 0.70264,-0.417336 0.7376,-0.435166 0.7376,-0.37613 0,0.02511 -0.17816,0.353994 -0.39593,0.730848 -0.51011,0.882769 -0.8329,1.442747 -1.75734,3.04857 -0.11915,0.20697 -0.31806,0.552453 -0.44202,0.767706 -0.12396,0.215262 -0.41236,0.716533 -0.64088,1.11394 -0.33877,0.589133 -1.03057,1.788659 -1.53231,2.656893 -0.0503,0.08695 -0.10246,0.158062 -0.11604,0.158062 -0.0136,0 -0.0209,-0.572398 -0.0162,-1.272002 h -2e-5 l 0.008,-1.271993 z m -7.07816,6.413088 c -0.43466,-0.355528 -1.01271,-0.992396 -1.2967,-1.428641 -0.39768,-0.610865 -0.728125,-1.382969 -0.856855,-2.002075 -0.01205,-0.05797 -0.04478,-0.212161 -0.07274,-0.342669 -0.02795,-0.130526 -0.03973,-0.248184 -0.02621,-0.261472 0.0291,-0.02848 2.472185,-0.04382 2.539105,-0.01601 0.05,0.0209 1.11253,1.783696 1.15391,1.914466 0.0269,0.08482 0.0436,0.05292 -0.92812,1.761248 -0.15066,0.264843 -0.2937,0.485278 -0.31789,0.48987 -0.0242,0.0042 -0.11171,-0.04702 -0.1945,-0.114776 z m 7.76743,-0.487805 c -0.18003,-0.318755 -0.45349,-0.802381 -0.60771,-1.074723 -0.16185,-0.285824 -0.28039,-0.529458 -0.28039,-0.576283 0,-0.05165 0.19908,-0.412288 0.54944,-0.995093 0.52704,-0.876736 0.55427,-0.915565 0.6678,-0.952632 0.15522,-0.05073 2.40429,-0.04003 2.45591,0.01171 0.0466,0.0466 -0.0873,0.691624 -0.24044,1.157866 -0.27749,0.845069 -0.74822,1.626283 -1.38246,2.294304 -0.29753,0.313379 -0.74598,0.714426 -0.79889,0.714426 -0.0197,0 -0.18325,-0.260798 -0.36326,-0.579552 z m -9.993105,-4.338672 c -0.04136,-0.27573 0.02985,-0.986001 0.148431,-1.480851 0.102693,-0.428535 0.364668,-1.097441 0.429814,-1.097441 0.0301,0 -5e-5,-0.05165 0.78778,1.350629 0.38424,0.683897 0.69124,1.262674 0.68223,1.28615 -0.0101,0.02638 -0.06,0.04289 -0.13023,0.04314 -0.0626,2.36e-4 -0.51508,0.0089 -1.00548,0.01913 l -0.891639,0.01862 z m 11.129655,0.109088 c -0.39505,-0.0084 -0.45911,-0.01618 -0.45911,-0.05721 0,-0.04382 0.17415,-0.362842 1.10606,-2.026184 0.18033,-0.321864 0.34287,-0.590212 0.36121,-0.596321 0.0469,-0.01567 0.20106,0.320794 0.33758,0.737228 0.16829,0.513287 0.22688,0.891962 0.22712,1.467933 l 2.4e-4,0.481705 -0.55697,8.42e-4 c -0.30634,5.4e-4 -0.76359,-0.0034 -1.0161,-0.0084 z m 0.0947,-3.184446 -2.10379,1.249664 -5.56393,-0.0209 v -3.4e-5 l -2.10763,-1.246512 z m -6.02592,-0.766568 c -0.0304,-0.0327 -0.10287,-0.144429 -0.16098,-0.248378 -0.0581,-0.103956 -0.2939,-0.514146 -0.52395,-0.911553 -0.60017,-1.036736 -0.58057,-0.997672 -0.52656,-1.049899 0.12165,-0.117649 1.06334,-0.367855 1.66199,-0.4415777 0.38875,-0.047862 1.39511,-0.022751 1.75509,0.043649 0.56704,0.1047826 1.24779,0.3042607 1.33461,0.3910867 0.0345,0.03446 -0.055,0.208588 -0.56799,1.105766 -0.33488,0.585678 -0.63571,1.088576 -0.6685,1.117554 -0.0544,0.04811 -0.15453,0.05266 -1.15401,0.05266 -1.0505,0 -1.09659,-0.0017 -1.1497,-0.05941 z m 3.27546,-0.02343 c 5.5e-4,-0.02899 0.22832,-0.438806 0.50604,-0.910728 0.46008,-0.781828 0.51172,-0.857582 0.58144,-0.852989 0.11211,0.0067 0.4724,0.233176 0.78804,0.493839 0.44889,0.370686 1.19425,1.170345 1.19425,1.281229 0,0.03455 -0.25388,0.04137 -1.53543,0.04137 -1.44266,0 -1.53536,-0.0034 -1.53434,-0.05267 z m -7.36643,-0.02292 c -0.0274,-0.07137 0.20081,-0.348997 0.68057,-0.827963 0.4269,-0.426208 0.80835,-0.727335 1.15074,-0.908419 0.15046,-0.07954 0.16156,-0.08123 0.20763,-0.03168 0.10256,0.110394 1.02555,1.72868 1.00963,1.77018 -0.0258,0.06716 -3.0228,0.06505 -3.04857,-0.0017 z"
       style="fill:#007ab6;fill-opacity:1;stroke-width:0.03010646" />
  </g>
</svg>
