<svg
   width="150px"
   height="50px"
   viewBox="0 0 150 50"
   version="1.1"
   id="SVGRoot">
  <sodipodi:namedview
     id="base"
     pagecolor="#ffffff"
     bordercolor="#666666"
     borderopacity="1.0"
     inkscape:pageopacity="0.0"
     inkscape:pageshadow="2"
     inkscape:zoom="0.85333333"
     inkscape:cx="85.135365"
     inkscape:cy="5.9538181"
     inkscape:document-units="px"
     inkscape:current-layer="layer1"
     showgrid="false"
     inkscape:window-width="1920"
     inkscape:window-height="1017"
     inkscape:window-x="-8"
     inkscape:window-y="-8"
     inkscape:window-maximized="1" />
  <defs
     id="defs13980" />
  <metadata
     id="metadata13983">
    <rdf:RDF>
      <cc:Work
         rdf:about="">
        <dc:format>image/svg+xml</dc:format>
        <dc:type
           rdf:resource="http://purl.org/dc/dcmitype/StillImage" />
        <dc:title></dc:title>
      </cc:Work>
    </rdf:RDF>
  </metadata>
  <g
     id="layer1"
     inkscape:groupmode="layer"
     inkscape:label="Livello 1">
    <g
       transform="matrix(0.84264219,0,0,0.84264219,22.591027,132.35794)"
       id="g4779"
       inkscape:export-filename="C:\workspace\card\card\src\reactor.png"
       inkscape:export-xdpi="299"
       inkscape:export-ydpi="299">
      <text
         transform="scale(0.95787377,1.0439789)"
         id="text4904"
         y="-122.13902"
         x="-8.6940126"
         style="font-style:normal;font-variant:normal;font-weight:normal;font-stretch:normal;font-size:34.15668106px;line-height:1.25;font-family:'Arial Rounded MT Bold';-inkscape-font-specification:'Arial Rounded MT Bold, ';letter-spacing:0px;word-spacing:0px;fill:#000000;fill-opacity:1;stroke:none;stroke-width:0.853917"
         xml:space="preserve"><tspan
           style="font-style:normal;font-variant:normal;font-weight:bold;font-stretch:normal;font-family:Arial;-inkscape-font-specification:Arial;fill:#000000;stroke-width:0.853917"
           y="-122.13902"
           x="-8.6940126"
           id="tspan4902"
           sodipodi:role="line">React    r</tspan></text>
      <g
         id="g4828"
         transform="matrix(0.53177056,0,0,0.53177056,71.382437,-226.84197)">
        <path
           style="color:#000000;font-style:normal;font-variant:normal;font-weight:normal;font-stretch:normal;font-size:medium;line-height:normal;font-family:sans-serif;font-variant-ligatures:normal;font-variant-position:normal;font-variant-caps:normal;font-variant-numeric:normal;font-variant-alternates:normal;font-feature-settings:normal;text-indent:0;text-align:start;text-decoration:none;text-decoration-line:none;text-decoration-style:solid;text-decoration-color:#000000;letter-spacing:normal;word-spacing:normal;text-transform:none;writing-mode:lr-tb;direction:ltr;text-orientation:mixed;dominant-baseline:auto;baseline-shift:baseline;text-anchor:start;white-space:normal;shape-padding:0;clip-rule:nonzero;display:inline;overflow:visible;visibility:visible;opacity:1;isolation:auto;mix-blend-mode:normal;color-interpolation:sRGB;color-interpolation-filters:linearRGB;solid-color:#000000;solid-opacity:1;vector-effect:none;fill:#007ab6;fill-opacity:1;fill-rule:nonzero;stroke:#007ab6;stroke-width:7.10744047;stroke-linecap:butt;stroke-linejoin:miter;stroke-miterlimit:4;stroke-dasharray:none;stroke-dashoffset:0;stroke-opacity:1;color-rendering:auto;image-rendering:auto;shape-rendering:auto;text-rendering:auto;enable-background:accumulate"
           d="m 243.03516,523.11133 c -3.53716,0.0321 -7.21519,0.68053 -10.91993,1.83984 -8.46793,2.64987 -17.38234,7.91293 -26.53515,15.25391 -3.48452,2.79474 -7.00302,5.90004 -10.5293,9.2832 -3.52409,-3.38059 -7.04085,-6.48415 -10.52344,-9.27734 -9.15281,-7.34098 -18.06916,-12.60404 -26.53711,-15.25391 -8.46794,-2.64986 -16.78889,-2.63903 -23.62304,1.30664 -6.83416,3.94572 -11.01011,11.15218 -12.94922,19.81055 -1.93911,8.65841 -1.83964,19.01036 -0.0586,30.60742 0.67757,4.4119 1.60574,9.00682 2.77148,13.74805 -4.69183,1.36157 -9.13722,2.85663 -13.29883,4.47656 -10.933866,4.25609 -19.94969,9.34696 -26.478514,15.35547 -6.528821,6.00854 -10.675782,13.22775 -10.675782,21.11914 0,7.89143 4.146961,15.10282 10.675782,21.11133 6.528824,6.00854 15.544648,11.09938 26.478514,15.35547 4.16214,1.62014 8.60829,3.11441 13.30078,4.47656 -1.16627,4.74391 -2.09557,9.34017 -2.77343,13.7539 -1.78105,11.59707 -1.88051,21.95101 0.0586,30.60938 1.93913,8.65841 6.11898,15.85706 12.95312,19.80273 6.83418,3.94572 15.15121,3.96237 23.61914,1.3125 8.46794,-2.6499 17.3843,-7.91293 26.53711,-15.2539 3.48322,-2.7937 7.00044,-5.89567 10.52539,-9.27735 3.52394,3.38118 7.04086,6.48416 10.52344,9.27735 9.15282,7.34097 18.06917,12.60404 26.53711,15.2539 8.46795,2.64991 16.79671,2.63712 23.63086,-1.30859 6.83415,-3.94567 11.0023,-11.14823 12.94141,-19.80664 1.93911,-8.65841 1.83964,-19.01235 0.0586,-30.60938 -0.67777,-4.41317 -1.60738,-9.01063 -2.77344,-13.7539 4.6925,-1.36215 9.13864,-2.85642 13.30078,-4.47656 10.93387,-4.25609 19.9497,-9.34693 26.47852,-15.35547 6.52882,-6.00851 10.67383,-13.2199 10.67383,-21.11133 0,-7.89139 -4.14501,-15.1106 -10.67383,-21.11914 -6.52882,-6.00851 -15.54465,-11.09938 -26.47852,-15.35547 -4.16108,-1.61973 -8.60569,-3.11512 -13.29687,-4.47656 1.16606,-4.74328 2.09567,-9.34074 2.77344,-13.75391 1.78105,-11.59703 1.88051,-21.95101 -0.0586,-30.60937 -1.9391,-8.65837 -6.11113,-15.85312 -12.94531,-19.79883 -3.8442,-2.21947 -8.16121,-3.19757 -12.70898,-3.15625 z m -95.95508,9.30078 c 2.4245,0.0363 5.12334,0.50529 8.12109,1.44336 6.85202,2.14424 14.96493,6.78966 23.49219,13.62891 3.21236,2.57646 6.48379,5.46102 9.78516,8.6289 -7.31502,7.73155 -14.58947,16.63105 -21.59375,26.48633 -12.03335,1.13707 -23.37423,2.98588 -33.72461,5.45312 -1.09252,-4.44352 -1.95494,-8.72053 -2.58008,-12.79101 -1.65933,-10.80442 -1.63156,-20.14815 -0.0625,-27.1543 1.56908,-7.00607 4.48331,-11.43673 8.51367,-13.76367 2.26708,-1.30888 4.93161,-1.97829 8.04883,-1.93164 z m 95.94531,0.002 c 3.11898,-0.0456 5.78566,0.62469 8.05273,1.9336 4.03039,2.32694 6.93874,6.75365 8.50782,13.75976 1.56908,7.00615 1.60271,16.35375 -0.0566,27.1582 -0.62506,4.06994 -1.48741,8.3464 -2.58008,12.78907 -10.35202,-2.46797 -21.69478,-4.31779 -33.73047,-5.45508 -7.00326,-9.85348 -14.27591,-18.75049 -21.58984,-26.48047 3.30239,-3.16841 6.5741,-6.05389 9.78711,-8.63086 8.52727,-6.83924 16.63432,-11.48861 23.48632,-13.63281 2.99775,-0.93809 5.69717,-1.40591 8.12305,-1.44141 z m -47.96875,30.34571 c 5.32762,5.65776 10.67595,12.01378 15.92578,18.95117 -5.21543,-0.27107 -10.52668,-0.42383 -15.93164,-0.42383 -5.40362,0 -10.71159,0.15289 -15.92578,0.42383 5.25144,-6.93763 10.60252,-13.29348 15.93164,-18.95117 z m -0.006,27.84961 c 7.88455,0 15.58264,0.3151 23.01367,0.90624 4.22693,6.14013 8.34839,12.64969 12.29102,19.47852 3.94373,6.83075 7.52149,13.65555 10.72656,20.38867 -3.20359,6.72948 -6.78076,13.54938 -10.72265,20.37696 -3.94245,6.82851 -8.062,13.34 -12.28907,19.48046 -7.43282,0.59076 -15.13294,0.90235 -23.01953,0.90235 -7.88523,0 -15.58273,-0.31179 -23.01367,-0.90235 -4.22818,-6.14077 -8.35006,-12.65114 -12.29297,-19.48046 -3.94221,-6.82811 -7.51751,-13.65053 -10.7207,-20.38086 3.20401,-6.73221 6.78163,-13.55534 10.72461,-20.38477 3.94263,-6.82884 8.06544,-13.33872 12.29297,-19.47852 7.42975,-0.59104 15.1259,-0.90624 23.00976,-0.90624 z M 159.99805,592.75 c -2.84146,4.37921 -5.62879,8.89934 -8.33008,13.57812 -2.702,4.68 -5.22536,9.35429 -7.59766,14.00586 -3.38112,-8.014 -6.20879,-15.82394 -8.44336,-23.26562 7.56235,-1.78583 15.73966,-3.2394 24.3711,-4.31836 z m 70.10937,0 c 8.6318,1.07888 16.81026,2.53273 24.37305,4.31836 -2.23573,7.44281 -5.06241,15.25415 -8.44531,23.26953 -2.37287,-4.65285 -4.89686,-9.32847 -7.59961,-14.00977 -2.70134,-4.67884 -5.4868,-9.19915 -8.32813,-13.57812 z m -103.52148,6.69141 c 3.03796,10.19711 7.10881,20.94192 12.14062,31.93164 -5.03252,10.99328 -9.10456,21.74285 -12.14258,31.94336 -4.39312,-1.27491 -8.52661,-2.66475 -12.36328,-4.15821 -10.18659,-3.96517 -18.265896,-8.66934 -23.548825,-13.53125 -5.282929,-4.86194 -7.662109,-9.59221 -7.662109,-14.24609 0,-4.65385 2.37918,-9.392 7.662109,-14.25391 5.282929,-4.86191 13.362235,-9.56017 23.548825,-13.52539 3.83733,-1.4937 7.97126,-2.88464 12.36524,-4.16015 z m 136.93554,0 c 4.39507,1.27565 8.5313,2.66624 12.36914,4.16015 10.1866,3.96522 18.25809,8.66348 23.54102,13.52539 5.28293,4.86191 7.66992,9.60006 7.66992,14.25391 0,4.65388 -2.38699,9.38415 -7.66992,14.24609 -5.28293,4.86191 -13.35442,9.56608 -23.54102,13.53125 -3.83836,1.49412 -7.97536,2.88479 -12.37109,4.16016 -3.03735,-10.19864 -7.1075,-20.94628 -12.13867,-31.9375 5.03186,-10.99184 9.10274,-21.74014 12.14062,-31.93945 z m -119.44531,42.97851 c 2.37193,4.64999 4.89241,9.3231 7.59375,14.00196 2.70261,4.68106 5.49138,9.20458 8.33399,13.58593 -8.63366,-1.07798 -16.81286,-2.53307 -24.37696,-4.31836 2.23531,-7.44336 5.06705,-15.25364 8.44922,-23.26953 z m 101.95703,0.006 c 3.38184,8.01317 6.2118,15.82276 8.44727,23.26367 -7.56278,1.78468 -15.74127,3.23859 -24.37305,4.31641 2.84197,-4.37991 5.63027,-8.90049 8.33203,-13.58008 2.70079,-4.6779 5.22236,-9.35048 7.59375,-14 z m 10.91602,32.27539 c 1.09331,4.44434 1.95485,8.72193 2.58008,12.79297 1.65932,10.80442 1.62181,20.14623 0.0527,27.15234 -1.56908,7.00611 -4.47355,11.43873 -8.50391,13.76563 -4.03035,2.32694 -9.32769,2.63049 -16.17968,0.48633 -6.85202,-2.1442 -14.95517,-6.7858 -23.48242,-13.625 -3.21269,-2.57672 -6.48679,-5.46245 -9.78907,-8.63086 7.31457,-7.73086 14.58788,-16.63 21.5918,-26.48438 12.03566,-1.1385 23.37847,-2.98782 33.73047,-5.45703 z m -123.78711,0.002 c 10.35207,2.4688 21.69501,4.31693 33.73047,5.45508 7.00327,9.85521 14.27599,18.75685 21.58984,26.48828 -3.30191,3.16863 -6.57638,6.05414 -9.78906,8.63086 -8.52724,6.83925 -16.63624,11.4769 -23.48828,13.6211 -6.85199,2.14416 -12.14345,1.84452 -16.17383,-0.48242 -4.03035,-2.32691 -6.94069,-6.76343 -8.50977,-13.76954 -1.56905,-7.00611 -1.60072,-16.34397 0.0586,-27.14843 0.62533,-4.07173 1.48883,-8.34957 2.58203,-12.79493 z m 45.96289,6.34766 c 5.21417,0.27127 10.52218,0.42383 15.92578,0.42383 5.40494,0 10.71623,-0.15242 15.93164,-0.42383 -5.24965,6.93699 -10.60041,13.2916 -15.92773,18.94922 -5.32825,-5.65709 -10.679,-12.01273 -15.92969,-18.94922 z"
           transform="scale(0.26458333)"
           id="path4777"
           inkscape:connector-curvature="0" />
        <g
           id="g4775"
           transform="matrix(1.1538327,0,0,-1.1538327,-87.476382,339.65996)">
          <circle
             r="16.037359"
             cy="149.58951"
             cx="120.53024"
             id="path4771"
             style="opacity:1;fill:#ffffff;fill-opacity:1;stroke:#007ab6;stroke-width:3.2595892;stroke-miterlimit:4;stroke-dasharray:none;stroke-dashoffset:0;stroke-opacity:1" />
        </g>
      </g>
      <rect
         ry="1.1860293e-014"
         y="-118.29713"
         x="-24.081009"
         height="0.65032917"
         width="172.55402"
         id="rect4872"
         style="opacity:1;fill:#000000;fill-opacity:1;stroke:none;stroke-width:2.5;stroke-miterlimit:4;stroke-dasharray:none;stroke-dashoffset:0;stroke-opacity:1" />
      <path
         sodipodi:nodetypes="cccscccccscccsccscssccccccccccccscccccscccccccccccccccccscccccsccscscccccscsccccccccccccccccscccsccsccccccszccczccczc"
         inkscape:connector-curvature="0"
         id="path4761"
         d="m 96.942465,-130.54012 c -0.267734,-0.0754 -0.63463,-0.19418 -0.815334,-0.26397 -0.548655,-0.21189 -1.173153,-0.54812 -1.206318,-0.64947 -0.0228,-0.0697 1.183536,-2.03284 1.249158,-2.03284 0.04045,0 0.342032,0.47515 0.941057,1.48273 0.484824,0.8155 0.889283,1.51088 0.89879,1.54527 0.01552,0.0562 -0.01326,0.0622 -0.281648,0.0589 -0.230454,-0.002 -0.41043,-0.035 -0.785705,-0.14066 z m 2.719821,0.0385 c 0,-0.0378 0.118083,-0.26658 0.262408,-0.50845 0.144326,-0.24187 0.547306,-0.91907 0.895506,-1.5049 0.34821,-0.58583 0.6516,-1.05897 0.6742,-1.05145 0.0521,0.0174 1.24055,1.97825 1.24055,2.04686 0,0.0627 -0.19086,0.18513 -0.63953,0.41028 -0.76348,0.38314 -1.34599,0.55221 -2.263419,0.65696 -0.150328,0.0172 -0.169715,0.0115 -0.169715,-0.0493 z m -1.03613,-3.56829 v 1.4619 c 0,1.15416 -0.0095,1.46191 -0.04516,1.46191 -0.02487,0 -0.292946,-0.43008 -0.59581,-0.95574 l 8e-6,-4e-5 c -0.302858,-0.52566 -0.87445,-1.51847 -1.270194,-2.20625 -0.395751,-0.68778 -1.030401,-1.78911 -1.410339,-2.4474 -0.379939,-0.6583 -1.055959,-1.832 -1.502266,-2.6082 -0.446307,-0.77621 -0.861929,-1.4964 -0.923602,-1.60043 -0.194274,-0.3277 -0.164968,-0.33094 0.345285,-0.0381 1.355913,0.77806 1.968451,1.14908 2.067707,1.25246 z m 3.665914,-5.68901 c 0.0888,-0.091 0.33601,-0.26337 0.55994,-0.39034 0.22055,-0.12506 0.69042,-0.39928 1.04413,-0.60937 0.83385,-0.49527 0.87535,-0.51643 0.87535,-0.44637 0,0.0298 -0.21143,0.4201 -0.46987,0.86733 -0.60537,1.04762 -0.98844,1.71217 -2.08551,3.61787 -0.1414,0.24562 -0.37746,0.65562 -0.52457,0.91107 -0.14711,0.25546 -0.48937,0.85034 -0.76056,1.32196 -0.40203,0.69915 -1.223022,2.12268 -1.818461,3.15305 -0.05965,0.10319 -0.121587,0.18758 -0.13771,0.18758 -0.0161,0 -0.0248,-0.67929 -0.01926,-1.50954 h -1.7e-5 l 0.01006,-1.50953 z m -8.399958,7.61069 c -0.515831,-0.42192 -1.201829,-1.17772 -1.538857,-1.69543 -0.471936,-0.72494 -0.864093,-1.64123 -1.016862,-2.37595 -0.0143,-0.0688 -0.05314,-0.25178 -0.08633,-0.40666 -0.03317,-0.1549 -0.04715,-0.29453 -0.03111,-0.3103 0.03453,-0.0338 2.933847,-0.052 3.013266,-0.019 0.05932,0.0248 1.320286,2.11679 1.3694,2.27198 0.03188,0.10066 0.05179,0.0628 -1.101446,2.09015 -0.178791,0.3143 -0.348551,0.5759 -0.377253,0.58135 -0.02872,0.005 -0.132576,-0.0558 -0.230828,-0.13621 z m 9.217938,-0.5789 c -0.21364,-0.37828 -0.53817,-0.95222 -0.72119,-1.27542 -0.19207,-0.3392 -0.33275,-0.62833 -0.33275,-0.6839 0,-0.0613 0.23626,-0.48928 0.65204,-1.18092 0.62547,-1.04046 0.65778,-1.08654 0.79251,-1.13053 0.18421,-0.0602 2.85328,-0.0475 2.91453,0.0139 0.0553,0.0553 -0.10361,0.82078 -0.28533,1.37409 -0.32932,1.00288 -0.88795,1.92998 -1.64063,2.72275 -0.35309,0.3719 -0.88529,0.84784 -0.94808,0.84784 -0.0234,0 -0.21747,-0.3095 -0.4311,-0.68778 z m -11.859245,-5.14889 c -0.04908,-0.32722 0.03543,-1.17013 0.176149,-1.75739 0.121871,-0.50856 0.432768,-1.30238 0.510081,-1.30238 0.03568,0 -5.9e-5,-0.0613 0.934892,1.60285 0.455994,0.81161 0.820326,1.49847 0.809633,1.52633 -0.01198,0.0313 -0.07125,0.0509 -0.154546,0.0512 -0.07431,2.8e-4 -0.611269,0.0106 -1.19325,0.0227 l -1.058149,0.0221 z m 13.208045,0.12946 c -0.46882,-0.01 -0.54485,-0.0192 -0.54485,-0.0679 0,-0.052 0.20668,-0.4306 1.31261,-2.40456 0.21401,-0.38197 0.4069,-0.70043 0.42866,-0.70768 0.0557,-0.0186 0.23861,0.3807 0.40063,0.8749 0.19971,0.60914 0.26924,1.05853 0.26953,1.74206 l 2.8e-4,0.57166 -0.66098,0.001 c -0.36354,6.4e-4 -0.90618,-0.004 -1.20584,-0.01 z m 0.11233,-3.77912 -2.49665,1.48303 -6.602956,-0.0248 v -4e-5 l -2.501214,-1.47929 z m -7.151214,-0.90972 c -0.03613,-0.0388 -0.122076,-0.1714 -0.191048,-0.29476 -0.06896,-0.12337 -0.348776,-0.61016 -0.621794,-1.08178 -0.712237,-1.23034 -0.688979,-1.18398 -0.624891,-1.24596 0.144377,-0.13962 1.261918,-0.43655 1.97236,-0.52404 0.461346,-0.0568 1.655636,-0.027 2.082837,0.0518 0.67293,0.12435 1.48081,0.36108 1.58385,0.46412 0.0409,0.0409 -0.0653,0.24754 -0.67406,1.31226 -0.39742,0.69505 -0.75443,1.29186 -0.79334,1.32625 -0.0646,0.0571 -0.183384,0.0625 -1.369512,0.0625 -1.246678,0 -1.301376,-0.002 -1.364402,-0.0705 z m 3.887134,-0.0278 c 6.5e-4,-0.0344 0.27095,-0.52075 0.60053,-1.0808 0.546,-0.92783 0.60728,-1.01773 0.69002,-1.01228 0.13305,0.008 0.56062,0.27672 0.93521,0.58606 0.53271,0.43991 1.41726,1.3889 1.41726,1.52049 0,0.041 -0.30128,0.0491 -1.82216,0.0491 -1.71206,0 -1.82208,-0.004 -1.82086,-0.0625 z m -8.742063,-0.0272 c -0.03253,-0.0847 0.238306,-0.41417 0.807656,-0.98258 0.506628,-0.5058 0.959311,-0.86316 1.365632,-1.07806 0.178565,-0.0944 0.191731,-0.0964 0.246402,-0.0376 0.121717,0.13101 1.217075,2.0515 1.198177,2.10075 -0.0306,0.0797 -3.587285,0.0772 -3.617867,-0.002 z"
         style="fill:#007ab6;fill-opacity:1;stroke-width:0.03572864" />
      <text
         id="text4765"
         y="-103.29311"
         x="2.7293448"
         style="font-size:10.58333302px;line-height:1.25;font-family:'Arial Rounded MT Bold';-inkscape-font-specification:'Arial Rounded MT Bold, ';letter-spacing:0px;word-spacing:0px;fill:#007ab6;fill-opacity:1;stroke:none;stroke-width:0.26458332"
         xml:space="preserve"><tspan
           style="fill:#007ab6;fill-opacity:1;stroke-width:0.26458332"
           y="-103.29311"
           x="2.7293448"
           id="tspan4763"
           sodipodi:role="line"><tspan
   id="tspan4793"
   style="fill:#000000">a react</tspan> [app] <tspan
   id="tspan4791"
   style="fill:#000000">generator</tspan></tspan></text>
    </g>
  </g>
</svg>
